<svg width="69" height="60" viewBox="0 0 69 60" fill="none" xmlns="http://www.w3.org/2000/svg">
    <path d="M62.1778 0.654831H30.8319C27.5169 0.654831 24.8295 3.34218 24.8295 6.65725V35.8049C24.8295 36.3782 18.3219 58.7949 18.1601 59.3452H26.1823H62.1778C65.4932 59.3452 68.1803 56.6581 68.1803 53.3427V6.65725C68.1803 3.34218 65.4932 0.654831 62.1778 0.654831Z" fill="white"/>
    <path d="M59.5101 5.99032H32.1657C31.0607 5.99032 30.1649 6.88611 30.1649 7.99113V19.329C30.1649 20.434 31.0607 21.3298 32.1657 21.3298H59.5101C60.6151 21.3298 61.5109 20.434 61.5109 19.329V7.99113C61.5109 6.88611 60.6151 5.99032 59.5101 5.99032Z" fill="#9CC7FF"/>
    <path d="M46.1714 25.9984H32.1657C31.0607 25.9984 30.1649 26.8942 30.1649 27.9992V30.6669C30.1649 31.772 31.0607 32.6677 32.1657 32.6677H46.1714C47.2764 32.6677 48.1722 31.772 48.1722 30.6669V27.9992C48.1722 26.8942 47.2764 25.9984 46.1714 25.9984Z" fill="#9CC7FF"/>
    <path d="M6.15521 16.6613H24.8294V52.6758C24.8294 56.3593 21.8434 59.3452 18.1601 59.3452C14.4767 59.3452 11.4907 56.3593 11.4907 52.6758V36.6694L6.15521 16.6613Z" fill="url(#paint0_linear)"/>
    <path d="M0.819763 21.9968C0.819763 19.0501 3.20853 16.6613 6.15525 16.6613H6.82218C9.40056 16.6613 11.4907 18.7515 11.4907 21.3298V48.6742H6.15525C3.20853 48.6742 0.819763 46.2854 0.819763 43.3387V21.9968Z" fill="url(#paint1_linear)"/>
    <defs>
        <linearGradient id="paint0_linear" x1="6.15521" y1="16.6613" x2="24.8294" y2="59.3452" gradientUnits="userSpaceOnUse">
            <stop stop-color="#CFDFFF"/>
            <stop offset="1" stop-color="#9CC7FF"/>
        </linearGradient>
        <linearGradient id="paint1_linear" x1="0.819763" y1="32.6677" x2="11.4907" y2="32.6677" gradientUnits="userSpaceOnUse">
            <stop stop-color="#CFDFFF"/>
            <stop offset="1" stop-color="#9CC7FF"/>
        </linearGradient>
    </defs>
</svg>
